<svg xmlns="http://www.w3.org/2000/svg" width="59" height="56" viewBox="0 0 59 56" fill="none">
  <g clip-path="url(#clip0_1700_11919)">
    <path d="M28.149 0.563181C27.166 0.695662 26.2294 1.00478 25.1424 1.5347C24.3213 1.94318 23.8819 2.2523 23.0493 3.04718C21.5344 4.48238 20.7596 5.87342 20.4011 7.79438C20.1814 9.00878 20.1814 9.56078 20.4011 10.7752C21.0256 14.1976 23.7431 16.9686 27.3395 17.8518C28.4381 18.1168 30.5196 18.1168 31.6182 17.8518C34.9949 17.0238 37.5852 14.5509 38.4525 11.3272C38.73 10.2784 38.73 8.29118 38.4525 7.24238C37.2498 2.78222 32.8093 -0.0881786 28.149 0.563181ZM31.3175 2.16398C33.2256 2.59454 35.3187 4.16222 36.2207 5.82926C37.4117 8.00414 37.4002 10.5765 36.2207 12.7403C35.6309 13.8222 34.2316 15.1581 33.0984 15.7211C30.8203 16.8582 28.1374 16.8582 25.8593 15.7211C24.622 15.1029 23.3037 13.8112 22.6792 12.5968C21.9738 11.2278 21.8119 10.4881 21.8697 8.95358C21.916 7.92686 21.9854 7.52942 22.2514 6.85598C23.1418 4.54862 25.2233 2.71598 27.5939 2.17502C28.4959 1.96526 30.404 1.96526 31.3175 2.16398Z" fill="#21272A"/>
    <path d="M30.245 8.40143L28.1519 10.3776L27.3887 9.67103C26.5445 8.88719 26.1976 8.77679 25.7813 9.17423C25.3187 9.61583 25.4575 9.90287 26.6833 11.0731C27.5968 11.9453 27.8859 12.155 28.1519 12.155C28.441 12.155 28.8689 11.7907 30.9504 9.80351C33.5754 7.29743 33.7026 7.13183 33.1823 6.63503C32.685 6.16031 32.4653 6.28175 30.245 8.40143Z" fill="#21272A"/>
    <path d="M11.3838 16.0643C11.1987 16.1526 10.8981 16.3514 10.7362 16.528C10.3893 16.8923 0.99931 29.0363 0.663954 29.5442C0.397983 29.9637 0.386419 30.8138 0.640826 31.3216C0.895234 31.8405 5.28955 35.1856 5.93713 35.3512C6.57315 35.5168 7.2323 35.3733 7.70642 34.9758C8.08804 34.6557 8.12273 34.6446 8.41183 34.8102C8.58529 34.9096 8.83969 35.1525 8.99003 35.3402C9.22131 35.6714 9.24444 35.837 9.24444 37.0403V38.3762L8.42339 39.3698C7.25543 40.7829 7.02415 41.2686 6.95476 42.3505C6.92007 43.0792 6.95476 43.3552 7.17448 43.8961C7.49827 44.7241 8.35401 45.6073 9.23287 46.0158C9.78794 46.2808 10.0192 46.3249 10.875 46.3249H11.881L11.9504 46.8659C12.0892 48.0251 13.0374 49.2285 14.1591 49.7032C14.8645 50.0013 15.9862 50.0785 16.6685 49.8798L17.212 49.7142L17.293 50.0675C17.5011 51.028 18.3569 51.9774 19.4323 52.4411C20.0452 52.7171 21.4213 52.7502 21.9995 52.5184L22.3811 52.3749L22.5893 52.9269C22.8553 53.6445 23.6763 54.4614 24.4973 54.8478C25.0293 55.1017 25.2953 55.1569 26.0122 55.1459C27.1224 55.1459 27.9897 54.7705 28.6951 53.9977L29.1923 53.4568L29.8283 53.7549C30.6725 54.1523 32.0255 54.1744 32.8465 53.788C34.107 53.2139 34.8818 52.1761 34.9974 50.9286L35.0668 50.2773L35.7722 50.2C37.5878 50.0233 38.8251 48.8089 38.9408 47.0867L38.987 46.3029L39.623 46.2366C41.4617 46.0489 42.9419 44.4923 42.9535 42.7259V41.9862L43.6242 41.931C44.5262 41.8537 45.4282 41.4121 46.0642 40.7387C46.6771 40.0873 46.943 39.4029 46.943 38.4755V37.78L47.3247 37.7138C47.5212 37.6806 48.192 37.5923 48.7933 37.515C49.8572 37.3826 49.9034 37.3936 50.4122 37.6365C50.7823 37.8242 51.0598 37.8794 51.3952 37.8462C51.9618 37.791 57.3622 35.5168 57.8248 35.1414C58.2989 34.7661 58.507 34.3355 58.507 33.7394C58.507 32.9886 51.7421 17.0358 51.1986 16.4949C50.7592 16.0643 50.1925 15.8656 49.6143 15.9429C49.1402 15.9981 43.5317 18.3717 43.1963 18.6477C42.8841 18.9237 42.5487 19.6523 42.5487 20.116C42.5487 20.4803 42.5025 20.5245 41.7739 20.9219C40.3863 21.6506 40.6869 21.6616 34.8587 20.8336C32.0024 20.4362 29.3889 20.105 29.0767 20.105C27.7468 20.105 26.3476 20.668 25.3184 21.6064L24.6592 22.2026H21.7914H18.9235L18.5419 21.9266C18.1834 21.6616 18.1603 21.6174 18.2297 21.1096C18.3453 20.105 18.1025 19.8069 15.5352 17.8859C14.2979 16.9475 13.1415 16.1306 12.968 16.0533C12.5517 15.8766 11.8116 15.8877 11.3838 16.0643ZM14.402 18.9016C15.5352 19.7517 16.5297 20.5355 16.6107 20.6349C16.7263 20.7894 16.7263 20.8778 16.6107 21.0765C16.5297 21.209 14.2863 24.1566 11.6151 27.6122C7.6486 32.7458 6.71192 33.8939 6.49221 33.905C6.30718 33.905 5.48614 33.353 4.07533 32.2931C2.32917 30.9683 1.94756 30.6261 1.98225 30.4384C2.02851 30.2066 11.696 17.5878 11.9504 17.4333C12.0198 17.3891 12.1354 17.345 12.2048 17.345C12.2742 17.345 13.2571 18.0405 14.402 18.9016ZM50.1578 17.5878C50.4354 17.919 57.0153 33.6842 56.9575 33.8718C56.8881 34.0926 51.6958 36.3338 51.2564 36.3338C51.1176 36.3338 50.9557 36.2454 50.8864 36.135C50.8285 36.0357 49.4409 32.7899 47.8103 28.937C46.1798 25.084 44.6649 21.5181 44.4452 21.0102C44.1446 20.3368 44.0752 20.0498 44.1561 19.9062C44.2833 19.6965 49.4062 17.4664 49.7878 17.4664C49.9266 17.4554 50.0884 17.5216 50.1578 17.5878ZM34.4655 22.2688C40.5828 23.141 40.6638 23.141 42.1324 22.3902C43.1269 21.8824 43.1385 21.8824 43.2426 22.1253C43.5432 22.7766 49.1171 35.9474 49.1055 35.9694C49.0939 35.9694 48.4811 36.0688 47.7525 36.1682C45.6247 36.4662 44.1677 36.2675 42.861 35.4837C42.6181 35.3402 40.2128 33.5406 37.53 31.4872C34.1533 28.9038 32.4649 27.6894 32.0718 27.5459C31.6786 27.4024 31.216 27.3362 30.5222 27.3362C29.5624 27.3362 29.5045 27.3472 28.1516 27.9654C26.4979 28.7162 25.8503 28.8707 24.5205 28.8045C22.7743 28.7162 21.6179 28.1421 21.6179 27.3693C21.6179 26.9939 21.7914 26.8062 24.7749 24.0904C25.7694 23.1741 26.7986 22.3019 27.053 22.1474C27.5387 21.8493 28.51 21.5622 29.0304 21.5512C29.2039 21.5402 31.6554 21.8714 34.4655 22.2688ZM17.7671 23.2182L18.2875 23.5826L20.5887 23.6157C21.8492 23.6378 22.8899 23.6709 22.8899 23.704C22.8899 23.7261 22.3696 24.2339 21.722 24.819C20.1724 26.2432 19.8717 26.8283 20.1262 27.9765C20.5193 29.7429 23.7341 30.7917 26.7061 30.1293C26.9952 30.063 27.8046 29.7539 28.51 29.4338C31.0541 28.2856 30.6494 28.12 36.6742 32.7347C39.3339 34.755 41.7624 36.5766 42.0862 36.7754C42.7338 37.1728 43.9711 37.6144 44.7459 37.7248C45.3472 37.8131 45.4397 37.9014 45.4397 38.4534C45.4397 39.2042 44.9887 39.8997 44.2602 40.264C43.9133 40.4406 42.9419 40.4738 42.5256 40.3192C42.3753 40.264 40.5713 39.0275 38.5013 37.5592C34.4192 34.6667 34.3267 34.6226 33.841 35.2518C33.4247 35.7818 33.6213 35.9805 37.0327 38.3762C38.7557 39.5906 40.3747 40.7608 40.6291 40.9705C41.1842 41.4453 41.3923 41.8979 41.3923 42.6265C41.3923 44.0617 39.97 45.0995 38.536 44.7352C38.2469 44.6579 36.8477 43.7747 34.7546 42.3505C31.3317 40.0211 31.0657 39.8776 30.6147 40.275C30.3718 40.4848 30.3372 40.9595 30.5569 41.2134C30.6263 41.3128 32.0024 42.2733 33.5866 43.3552C35.1825 44.4371 36.6395 45.4749 36.8477 45.6625C38.0388 46.7886 37.1946 48.6985 35.5178 48.6985C35.2519 48.6985 34.9281 48.6544 34.7777 48.5992C34.6274 48.544 33.1588 47.4952 31.5051 46.2697C29.8515 45.0443 28.3828 43.9845 28.2325 43.9182C27.8625 43.7526 27.3536 44.128 27.3074 44.6027C27.2611 45.0222 27.0761 44.8566 30.395 47.3406C31.7595 48.3563 32.9737 49.3278 33.1125 49.4934C33.4363 49.924 33.5057 50.9617 33.2397 51.5027C32.8234 52.3197 31.7711 52.7833 30.8228 52.5515C30.0712 52.3749 30.0249 52.2645 30.314 51.5579C30.8807 50.1558 30.4412 48.4998 29.2386 47.5945C28.5332 47.0646 28.0012 46.888 27.0992 46.888L26.3823 46.8769L26.3244 46.3029C26.1626 44.7904 24.798 43.5539 23.1675 43.4214L22.4621 43.3662L22.4043 42.6928C22.2886 41.3238 21.5023 40.2088 20.2534 39.6237C19.6058 39.3146 19.3629 39.2594 18.6575 39.2594H17.8249L17.7555 38.7073C17.6399 37.769 17.3508 37.1397 16.7263 36.4883C15.9284 35.6603 15.2115 35.3181 14.0782 35.2518C12.9796 35.1856 12.1701 35.4174 11.3375 36.0136L10.7478 36.4442V35.9142C10.7478 35.1525 10.2852 34.3245 9.57979 33.8166L9.02472 33.4192L9.45259 32.8672C9.68387 32.5581 10.7593 31.156 11.8463 29.765C12.9333 28.3629 14.5754 26.2432 15.489 25.0509C16.4141 23.8475 17.1889 22.865 17.2005 22.865C17.2236 22.865 17.478 23.0306 17.7671 23.2182ZM14.5754 36.7974C15.1883 36.9851 15.5815 37.2942 15.9169 37.8462C16.2869 38.4645 16.3332 39.3808 16.0094 39.977C15.6971 40.5731 12.7599 44.128 12.332 44.4371C10.7593 45.5853 8.50434 44.4923 8.49278 42.5713C8.49278 41.7323 8.63154 41.5115 10.6552 39.0496C11.8463 37.5923 12.3089 37.1176 12.7021 36.9189C13.2687 36.6429 13.9625 36.5877 14.5754 36.7974ZM19.652 40.9705C20.6697 41.4674 21.1207 42.4609 20.8084 43.5208C20.6812 43.9624 17.5358 47.7712 17.0039 48.1355C15.9053 48.8862 14.2863 48.4667 13.6388 47.2633C13.4075 46.8438 13.4537 45.9385 13.7313 45.4417C14.0551 44.8456 16.9692 41.3128 17.3508 41.0478C17.9637 40.6173 18.8541 40.5952 19.652 40.9705ZM23.6532 45.0443C24.2082 45.2872 24.5783 45.6957 24.7633 46.3029C24.9715 46.9542 24.7286 47.451 23.3409 49.2395C22.0342 50.9176 21.6295 51.2377 20.739 51.2377C20.0683 51.2377 19.2473 50.7078 18.9582 50.1006C18.6922 49.5376 18.6691 49.1512 18.9004 48.6433C19.0623 48.2569 21.0975 45.795 21.6526 45.2982C22.1845 44.8235 22.9246 44.7241 23.6532 45.0443ZM27.9897 48.544C28.3828 48.7317 28.8801 49.2947 28.9726 49.648C29.1461 50.3104 28.9495 50.9838 28.325 51.9222C27.5387 53.0925 27.3074 53.3243 26.8564 53.512C25.6537 54.0088 24.2198 53.3353 23.9538 52.143C23.8498 51.6793 23.9191 51.0832 24.1157 50.7851C24.4395 50.2773 25.7347 48.7648 25.966 48.6213C26.5442 48.268 27.3421 48.2349 27.9897 48.544Z" fill="#21272A"/>
  </g>
  <defs>
    <clipPath id="clip0_1700_11919">
      <rect width="58.725" height="55.35" fill="white" transform="translate(0 0.324951)"/>
    </clipPath>
  </defs>
</svg>