<svg xmlns="http://www.w3.org/2000/svg" width="61" height="62" viewBox="0 0 61 62" fill="none">
  <path d="M29.7224 4.71875C29.4258 5.00352 29.4258 5.02725 29.4258 7.26978C29.4258 9.5123 29.4258 9.53604 29.7224 9.8208C29.9004 10.0106 30.1496 10.1174 30.375 10.1174C30.6004 10.1174 30.8496 10.0106 31.0276 9.8208C31.3242 9.53604 31.3242 9.5123 31.3242 7.26978C31.3242 5.02725 31.3242 5.00352 31.0276 4.71875C30.8496 4.52891 30.6004 4.42212 30.375 4.42212C30.1496 4.42212 29.9004 4.52891 29.7224 4.71875Z" fill="#21272A"/>
  <path d="M13.6351 11.41C13.0181 12.027 13.1486 12.288 14.9877 14.1153C16.3641 15.4917 16.6251 15.6934 16.9573 15.6934C17.4675 15.6934 17.9184 15.2425 17.9184 14.7323C17.9184 14.4 17.7167 14.139 16.3522 12.7626C14.5131 10.9235 14.2521 10.793 13.6351 11.41Z" fill="#21272A"/>
  <path d="M46.0969 11.1846C45.9664 11.232 45.1833 11.9677 44.3527 12.8101C43.0476 14.139 42.834 14.4 42.834 14.7323C42.834 15.2425 43.2849 15.6934 43.7951 15.6934C44.1273 15.6934 44.3883 15.4917 45.7647 14.1153C47.5919 12.2999 47.7343 12.027 47.1292 11.4219C46.7614 11.0541 46.5241 11.0066 46.0969 11.1846Z" fill="#21272A"/>
  <path d="M28.6562 12.0866C27.3035 12.3002 26.1763 12.5493 25.239 12.8697C16.8503 15.6699 12.2822 24.7942 15.0705 33.1474C16.2214 36.6239 18.1673 39.2342 21.1455 41.3462C21.6438 41.6903 22.2015 42.07 22.4032 42.1768L22.771 42.3785L22.8066 47.4806C22.8422 52.4165 22.8541 52.5826 23.0914 52.903C23.6135 53.6149 23.8864 53.7217 25.2746 53.7573L26.556 53.8047L26.6035 55.0862C26.6391 56.4744 26.7459 56.7473 27.4578 57.2694C27.7663 57.5067 27.9443 57.5186 30.3766 57.5186C32.809 57.5186 32.987 57.5067 33.2955 57.2694C34.0074 56.7473 34.1142 56.4744 34.1498 55.0862L34.1972 53.8047L35.4787 53.7573C36.8669 53.7217 37.1398 53.6149 37.6619 52.903C37.8992 52.5945 37.9111 52.3928 37.9704 47.4687L38.0297 42.3548L38.7654 41.9039C41.9334 39.9817 44.4607 36.8256 45.6116 33.3728C46.2998 31.3083 46.454 30.359 46.4422 28.1521C46.4422 25.9333 46.2642 24.818 45.5997 22.8839C44.259 19.0159 41.4944 15.7885 37.9111 13.902C35.5261 12.6442 33.5802 12.134 30.8512 12.0747C29.8427 12.051 28.8579 12.0628 28.6562 12.0866ZM32.5954 14.0918C38.4687 15.041 42.9775 19.36 44.342 25.3282C44.4844 25.957 44.5319 26.7401 44.5319 28.2114C44.5319 30.0861 44.5081 30.3353 44.164 31.6286C43.1555 35.4967 40.6401 38.724 37.1873 40.6225C36.7008 40.8954 36.2499 41.2039 36.1906 41.3225C36.1194 41.4412 36.0719 42.1649 36.0719 42.9125V44.2888H33.6989H31.3259V42.1175V39.958L32.6785 38.6054C33.426 37.8579 34.0667 37.1104 34.1142 36.9561C34.2684 36.3391 33.7582 35.7459 33.0819 35.7459C32.9277 35.7459 32.37 36.1967 31.6106 36.9561L30.3766 38.1664L29.1426 36.9561C28.3833 36.1967 27.8256 35.7459 27.6714 35.7459C27.0544 35.7459 26.5798 36.2205 26.5798 36.8375C26.5798 37.0036 27.09 37.6087 28.0036 38.5342L29.4274 39.9699V42.1293V44.2888H27.0544H24.6813V42.9125C24.6813 42.1649 24.6339 41.4412 24.5627 41.3225C24.5033 41.2039 24.0525 40.8954 23.5779 40.6343C16.8384 36.9324 14.2281 28.6504 17.6452 21.8042C19.7928 17.4971 23.8982 14.6257 28.7748 13.9969C29.6529 13.8782 31.5988 13.9257 32.5954 14.0918ZM36.0719 47.1365V48.0857H30.3766H24.6813V47.1365V46.1873H30.3766H36.0719V47.1365ZM36.0719 50.9334V51.8826H30.3766H24.6813V50.9334V49.9841H30.3766H36.0719V50.9334ZM32.2751 54.7302V55.6794H30.3766H28.4782V54.7302V53.781H30.3766H32.2751V54.7302Z" fill="#21272A"/>
  <path d="M6.94116 27.5C6.75132 27.678 6.64453 27.9271 6.64453 28.1526C6.64453 28.378 6.75132 28.6272 6.94116 28.8052C7.22593 29.1018 7.24966 29.1018 9.49219 29.1018C11.7347 29.1018 11.7584 29.1018 12.0432 28.8052C12.2331 28.6272 12.3398 28.378 12.3398 28.1526C12.3398 27.9271 12.2331 27.678 12.0432 27.5C11.7584 27.2034 11.7347 27.2034 9.49219 27.2034C7.24966 27.2034 7.22593 27.2034 6.94116 27.5Z" fill="#21272A"/>
  <path d="M48.7068 27.5C48.5169 27.678 48.4102 27.9271 48.4102 28.1526C48.4102 28.378 48.5169 28.6272 48.7068 28.8052C48.9916 29.1018 49.0153 29.1018 51.2578 29.1018C53.5003 29.1018 53.5241 29.1018 53.8088 28.8052C53.9987 28.6272 54.1055 28.378 54.1055 28.1526C54.1055 27.9271 53.9987 27.678 53.8088 27.5C53.5241 27.2034 53.5003 27.2034 51.2578 27.2034C49.0153 27.2034 48.9916 27.2034 48.7068 27.5Z" fill="#21272A"/>
  <path d="M16.5506 40.7297C16.4201 40.7771 15.6607 41.489 14.8658 42.2959C13.1572 44.0045 13.0266 44.2892 13.6318 44.8943C14.2369 45.4876 14.5217 45.3571 16.1709 43.7197C18.0456 41.8687 18.188 41.5839 17.571 40.9551C17.2151 40.5991 16.9659 40.5517 16.5506 40.7297Z" fill="#21272A"/>
  <path d="M43.1772 40.9552C42.5721 41.5604 42.7026 41.8451 44.3993 43.5418C45.1943 44.3368 45.9892 45.0487 46.1672 45.1199C46.8554 45.4047 47.6266 44.6334 47.3419 43.9453C47.2707 43.7673 46.5588 42.9723 45.7638 42.1773C44.0671 40.4806 43.7823 40.3501 43.1772 40.9552Z" fill="#21272A"/>
</svg>