<svg xmlns="http://www.w3.org/2000/svg" width="61" height="61" viewBox="0 0 61 61" fill="none">
  <path d="M38.0392 3.82066C37.9454 3.91453 37.8984 4.6068 37.8984 6.14387C37.8984 8.11508 37.9219 8.36149 38.1096 8.52575C38.403 8.78389 38.6728 8.77216 38.9544 8.49055C39.1656 8.27935 39.1891 8.10335 39.1891 6.22601C39.1891 4.58333 39.1539 4.1492 39.0014 3.93799C38.8019 3.65639 38.2739 3.58599 38.0392 3.82066Z" fill="#21272A"/>
  <path d="M27.0667 6.82406C26.9493 6.94139 26.8672 7.12912 26.8672 7.24646C26.8672 7.57499 28.8853 10.9777 29.1552 11.0715C29.4955 11.2006 29.8475 11.0363 29.9648 10.6961C30.0587 10.4379 29.9296 10.1563 29.0965 8.71313C28.5685 7.78619 28.0405 6.92966 27.9467 6.81232C27.712 6.55419 27.3013 6.55419 27.0667 6.82406Z" fill="#21272A"/>
  <path d="M49.1376 6.75304C49.032 6.83517 48.5158 7.65651 47.9878 8.57171C46.9787 10.3317 46.8731 10.7189 47.3424 11.024C47.5301 11.1531 47.6358 11.1531 47.8587 11.0357C48.1872 10.8715 50.0998 7.63304 50.0998 7.23411C50.0998 6.72957 49.5366 6.44797 49.1376 6.75304Z" fill="#21272A"/>
  <path d="M31.7978 13.2658C31.3636 13.4418 24.8751 18.1704 24.8047 18.3698C24.7695 18.4989 24.8164 18.7101 24.9103 18.8509C25.2036 19.285 38.1221 32.8606 38.3215 32.9427C38.4154 32.9779 38.6149 32.9427 38.7674 32.8606C38.9082 32.7902 41.9941 29.587 45.6197 25.7619C50.5477 20.564 52.2139 18.7336 52.2139 18.5341C52.2139 18.3464 52.0613 18.1352 51.7797 17.9122C51.0523 17.3373 45.5962 13.4653 45.3264 13.3245C45.1386 13.2189 43.2848 13.1837 38.521 13.1954C34.9188 13.1954 31.8916 13.2306 31.7978 13.2658ZM35.0596 14.5682C35.0479 14.6269 34.5551 15.3895 33.9802 16.2695L32.9476 17.877H30.2372C28.7471 17.877 27.5737 17.8418 27.6207 17.7949C27.6676 17.748 28.7119 16.9853 29.9556 16.0935L32.2084 14.4861L33.6516 14.4743C34.4495 14.4743 35.0831 14.5213 35.0596 14.5682ZM41.3957 16.1287C41.9941 17.044 42.4634 17.8066 42.44 17.8301C42.4165 17.8653 40.6213 17.8653 38.4506 17.8536L34.5082 17.8184L35.5055 16.293C36.057 15.4482 36.5733 14.6973 36.6319 14.6151C36.7258 14.5213 37.2538 14.4743 38.5327 14.4743H40.3162L41.3957 16.1287ZM47.1685 16.1757L49.5504 17.877H46.8048H44.0592L43.1792 16.5042C42.6981 15.7533 42.2053 14.9906 42.088 14.8029L41.865 14.4743H43.32H44.7866L47.1685 16.1757ZM34.7663 24.2952C35.8341 27.1229 36.7023 29.4344 36.6906 29.4462C36.6671 29.4696 28.6532 21.0333 27.6441 19.9304L26.9636 19.1677H29.8852H32.8186L34.7663 24.2952ZM42.6746 19.5432C42.5925 19.7544 41.6304 22.2888 40.5274 25.1752C39.4362 28.0616 38.5093 30.3848 38.4741 30.3379C38.3919 30.2558 34.3908 19.7426 34.2852 19.3672C34.2383 19.1794 34.4964 19.1677 38.5327 19.1677H42.8272L42.6746 19.5432ZM49.9611 19.2616C49.9024 19.4258 40.4335 29.364 40.3866 29.3288C40.3514 29.2936 43.6016 20.6578 44.0592 19.5432L44.2234 19.1677H47.1098C48.7056 19.1677 49.9845 19.2146 49.9611 19.2616Z" fill="#21272A"/>
  <path d="M18.9343 15.0027C18.7583 15.2725 18.7583 15.3195 18.9226 15.5659C19.1455 15.9179 22.337 17.76 22.7007 17.76C23.2287 17.76 23.522 17.1968 23.2052 16.7979C22.9471 16.4928 19.7322 14.7093 19.4154 14.7093C19.2394 14.7093 19.0516 14.8149 18.9343 15.0027Z" fill="#21272A"/>
  <path d="M55.6528 15.6363C53.7872 16.7392 53.7402 16.7744 53.7402 17.1616C53.7402 17.5488 53.9397 17.76 54.3034 17.76C54.6085 17.76 57.8117 15.9765 58.0581 15.6715C58.3867 15.2491 58.0699 14.6976 57.5184 14.7211C57.3424 14.7328 56.5093 15.1435 55.6528 15.6363Z" fill="#21272A"/>
  <path d="M21.4003 34.3512C19.9454 34.7971 18.1502 35.5949 15.0408 37.1907C13.4803 38.0003 12.1427 38.6222 12.084 38.587C12.0253 38.5518 11.8141 38.2936 11.6264 38.012C11.4269 37.7304 11.0867 37.4136 10.852 37.308C10.3475 37.0616 9.52613 37.0382 9.1272 37.2494C8.72826 37.4606 3.31916 41.1918 2.70903 41.6728C1.92289 42.3064 1.68822 43.1278 2.04022 43.9609C2.22796 44.395 10.8989 56.9497 11.3683 57.466C11.9549 58.0996 12.9171 58.3108 13.6328 57.9353C13.8206 57.8297 15.428 56.7503 17.188 55.53C20.0275 53.5705 20.4265 53.2537 20.6377 52.8078C20.9545 52.139 20.9427 51.7166 20.5907 51.0126C20.4265 50.6958 20.2974 50.379 20.2974 50.3204C20.2974 50.1092 21.0131 49.323 21.2009 49.323C21.3065 49.323 24.1459 50.1796 27.5017 51.2238C33.3215 53.0425 33.6617 53.1246 34.5535 53.1246C37.4634 53.1012 41.4292 50.9774 49.2202 45.275C50.9685 43.9961 52.705 42.7406 53.0922 42.4824C54.9109 41.2504 55.6619 40.1475 55.6619 38.763C55.6501 36.2051 52.752 34.8088 49.9125 35.9704C49.5253 36.1347 47.0847 37.5075 44.4799 39.0328C41.8751 40.5582 39.7044 41.8136 39.6575 41.8136C39.6106 41.8136 39.5284 41.6142 39.4815 41.3795C39.3172 40.4643 38.4255 39.2206 37.6276 38.8099C37.4516 38.716 36.1257 38.2467 34.6825 37.7656C33.2276 37.2846 30.9279 36.428 29.5433 35.8765C25.5188 34.2456 25.2606 34.1635 23.7001 34.1165C22.5267 34.0696 22.2334 34.1048 21.4003 34.3512ZM25.0377 35.5949C25.5305 35.724 27.1966 36.3224 28.722 36.9326C31.4793 38.0238 33.4153 38.7278 35.762 39.4787C37.1231 39.9246 37.6394 40.2766 38.0031 41.0275C38.8244 42.7289 37.5924 44.747 35.7268 44.747C35.3983 44.747 33.2159 44.1838 30.0009 43.2686C24.5331 41.7198 24.4158 41.6963 24.2281 42.283C24.0286 42.9049 24.1577 42.9635 29.8132 44.5593C34.8351 45.979 35.1871 46.0611 35.9615 46.0142C37.2756 45.9203 38.3199 45.2867 39.0239 44.1486C39.4228 43.5033 39.5636 43.3977 41.1124 42.5059C42.0159 41.9779 44.2687 40.6638 46.1109 39.5843C47.953 38.5048 49.7248 37.484 50.0416 37.3198C51.6373 36.5219 53.3034 36.7448 54.1365 37.8595C54.3125 38.1059 54.3829 38.364 54.3712 38.8334C54.3712 39.7603 53.9722 40.2531 52.2005 41.5203C51.3909 42.0952 49.4666 43.5033 47.9178 44.6297C44.5621 47.0819 42.4266 48.5251 40.561 49.6046C37.874 51.1652 35.5625 51.9982 34.3305 51.8692C34.002 51.834 32.4415 51.3998 30.8575 50.907C23.5827 48.6425 21.5529 48.0323 21.283 48.0323C20.7902 48.0323 20.1449 48.3609 19.7577 48.8067L19.4057 49.2292L16.132 44.5123C13.5742 40.8163 12.9054 39.772 13.0344 39.6899C13.5742 39.3496 19.5699 36.3928 20.2974 36.1229C22.3273 35.3485 23.5475 35.2077 25.0377 35.5949ZM15.0056 45.1577C19.1827 51.1769 19.6169 51.8457 19.523 52.1156C19.4526 52.3268 18.4787 53.0777 16.2494 54.6265C13.668 56.4217 13.0227 56.8324 12.7294 56.7972C12.4125 56.7737 12.0019 56.2105 7.77786 50.1444C5.25518 46.4953 3.17836 43.4094 3.17836 43.2686C3.16663 43.1395 3.23703 42.9518 3.30743 42.8579C3.48343 42.6467 9.4792 38.4814 9.73733 38.3875C9.8312 38.3523 10.0189 38.364 10.148 38.411C10.2771 38.4579 12.3656 41.3443 15.0056 45.1577Z" fill="#21272A"/>
  <path d="M13.0931 50.1792C12.436 50.5899 12.084 51.2235 12.084 52.0214C12.084 53.5936 13.6563 54.5792 15.076 53.8987C16.5075 53.2064 16.6952 51.2822 15.428 50.3083C14.8061 49.839 13.7501 49.7803 13.0931 50.1792ZM14.7475 51.4582C15.0877 51.775 15.0877 52.127 14.7709 52.5376C14.3016 53.136 13.3747 52.784 13.3747 51.9979C13.3747 51.247 14.1843 50.9302 14.7475 51.4582Z" fill="#21272A"/>
</svg>