<svg width="89" height="89" viewBox="0 0 89 89" fill="none" xmlns="http://www.w3.org/2000/svg">
<g id="value">
<g id="Group">
<path id="Vector" d="M56.3551 4.38015C56.216 4.51921 56.1465 5.54479 56.1465 7.82194C56.1465 10.7423 56.1812 11.1073 56.4594 11.3507C56.8939 11.7331 57.2937 11.7157 57.7109 11.2985C58.0238 10.9856 58.0586 10.7249 58.0586 7.94362C58.0586 5.51003 58.0064 4.86686 57.7805 4.55397C57.485 4.13679 56.7027 4.03249 56.3551 4.38015Z" fill="#21272A"/>
<path id="Vector_2" d="M40.1021 8.82984C39.9283 9.00367 39.8066 9.28179 39.8066 9.45562C39.8066 9.94234 42.7965 14.9834 43.1963 15.1224C43.7004 15.3136 44.2219 15.0703 44.3957 14.5662C44.5348 14.1837 44.3436 13.7666 43.1094 11.6285C42.3271 10.2552 41.5449 8.98628 41.4059 8.81245C41.0582 8.43003 40.4498 8.43003 40.1021 8.82984Z" fill="#21272A"/>
<path id="Vector_3" d="M72.7991 8.72622C72.6426 8.8479 71.8778 10.0647 71.0956 11.4206C69.6006 14.028 69.4442 14.6016 70.1395 15.0536C70.4176 15.2448 70.5741 15.2448 70.9044 15.0709C71.3911 14.8276 74.2245 10.0299 74.2245 9.43891C74.2245 8.69145 73.3901 8.27426 72.7991 8.72622Z" fill="#21272A"/>
<path id="Vector_4" d="M47.1075 18.3728C46.4643 18.6336 36.8516 25.6388 36.7473 25.9344C36.6951 26.1256 36.7647 26.4385 36.9037 26.6471C37.3383 27.2902 56.4768 47.4021 56.7723 47.5238C56.9114 47.576 57.2069 47.5238 57.4328 47.4021C57.6414 47.2978 62.2131 42.5523 67.5844 36.8855C74.8852 29.1849 77.3535 26.4732 77.3535 26.1777C77.3535 25.8996 77.1276 25.5867 76.7104 25.2564C75.6326 24.4047 67.5496 18.6683 67.1498 18.4597C66.8717 18.3033 64.1252 18.2512 57.0678 18.2685C51.7313 18.2685 47.2465 18.3207 47.1075 18.3728ZM51.9399 20.3023C51.9225 20.3892 51.1924 21.5191 50.3407 22.8228L48.811 25.2043H44.7955C42.5879 25.2043 40.8496 25.1521 40.9192 25.0826C40.9887 25.0131 42.5358 23.8832 44.3783 22.5621L47.7158 20.1806L49.8539 20.1633C51.036 20.1633 51.9746 20.2328 51.9399 20.3023ZM61.3266 22.6142C62.2131 23.9701 62.9084 25.1 62.8737 25.1347C62.8389 25.1869 60.1793 25.1869 56.9635 25.1695L51.1229 25.1174L52.6004 22.8576C53.4174 21.606 54.1823 20.4935 54.2692 20.3719C54.4082 20.2328 55.1905 20.1633 57.0852 20.1633H59.7274L61.3266 22.6142ZM69.8789 22.6838L73.4076 25.2043H69.3401H65.2725L63.9688 23.1705C63.2561 22.058 62.526 20.9281 62.3522 20.65L62.0219 20.1633H64.1774H66.3502L69.8789 22.6838ZM51.5053 34.7127C53.0871 38.9019 54.3735 42.3263 54.3561 42.3437C54.3213 42.3785 42.4489 29.8803 40.9539 28.2463L39.9457 27.1164H44.2741H48.6198L51.5053 34.7127ZM63.2213 27.6726C63.0996 27.9855 61.6742 31.7402 60.0403 36.0164C58.4237 40.2926 57.0504 43.7344 56.9983 43.6648C56.8766 43.5431 50.9491 27.9681 50.7926 27.4119C50.7231 27.1338 51.1055 27.1164 57.0852 27.1164H63.4473L63.2213 27.6726ZM74.016 27.2554C73.9291 27.4988 59.9012 42.2221 59.8317 42.1699C59.7795 42.1178 64.5946 29.324 65.2725 27.6726L65.5159 27.1164H69.792C72.1561 27.1164 74.0508 27.1859 74.016 27.2554Z" fill="#21272A"/>
<path id="Vector_5" d="M28.0557 20.9463C27.795 21.3461 27.795 21.4156 28.0383 21.7807C28.3686 22.3021 33.0967 25.0312 33.6356 25.0312C34.4178 25.0312 34.8524 24.1969 34.383 23.6059C34.0006 23.1539 29.2377 20.5117 28.7684 20.5117C28.5076 20.5117 28.2295 20.6682 28.0557 20.9463Z" fill="#21272A"/>
<path id="Vector_6" d="M82.4467 21.885C79.6828 23.5189 79.6133 23.5711 79.6133 24.1447C79.6133 24.7184 79.9088 25.0312 80.4477 25.0312C80.8996 25.0312 85.6451 22.3891 86.0102 21.9371C86.4969 21.3113 86.0275 20.4943 85.2105 20.5291C84.9498 20.5465 83.7156 21.1549 82.4467 21.885Z" fill="#21272A"/>
<path id="Vector_7" d="M31.7063 49.6102C29.5508 50.2707 26.8913 51.4528 22.2848 53.8168C19.9729 55.0162 17.9913 55.9375 17.9044 55.8854C17.8174 55.8332 17.5046 55.4508 17.2264 55.0336C16.9309 54.6164 16.4268 54.1471 16.0792 53.9907C15.3317 53.6256 14.1149 53.5908 13.5239 53.9037C12.9329 54.2166 4.9194 59.7444 4.01549 60.4571C2.85084 61.3957 2.50319 62.6125 3.02467 63.8467C3.30279 64.4899 16.1487 83.0895 16.844 83.8543C17.7131 84.793 19.1385 85.1059 20.1989 84.5496C20.477 84.3932 22.8585 82.794 25.4659 80.9862C29.6725 78.0832 30.2635 77.6139 30.5764 76.9533C31.0458 75.9625 31.0284 75.3367 30.5069 74.2938C30.2635 73.8244 30.0723 73.3551 30.0723 73.2682C30.0723 72.9553 31.1327 71.7906 31.4108 71.7906C31.5672 71.7906 35.7739 73.0596 40.7454 74.6067C49.3672 77.301 49.8713 77.4227 51.1924 77.4227C55.5034 77.3879 61.3788 74.2416 72.921 65.7936C75.511 63.8989 78.0836 62.0389 78.6573 61.6565C81.3516 59.8313 82.4641 58.1973 82.4641 56.1461C82.4467 52.3567 78.1532 50.2881 73.9465 52.009C73.3729 52.2524 69.7573 54.2862 65.8983 56.5459C62.0393 58.8057 58.8235 60.6657 58.754 60.6657C58.6844 60.6657 58.5628 60.3701 58.4932 60.0225C58.2499 58.6666 56.9288 56.824 55.7467 56.2157C55.486 56.0766 53.5217 55.3813 51.3837 54.6686C49.2282 53.9559 45.8212 52.6869 43.77 51.8699C37.8077 49.4537 37.4253 49.3321 35.1133 49.2625C33.3751 49.193 32.9405 49.2451 31.7063 49.6102ZM37.095 51.4528C37.8251 51.644 40.2934 52.5305 42.5532 53.4344C46.6381 55.051 49.5063 56.094 52.9829 57.2065C54.9993 57.867 55.7641 58.3885 56.303 59.501C57.5198 62.0215 55.6946 65.0114 52.9307 65.0114C52.444 65.0114 49.2108 64.177 44.4479 62.8211C36.3475 60.5266 36.1737 60.4918 35.8956 61.361C35.6001 62.2823 35.7913 62.3692 44.1698 64.7332C51.6096 66.8365 52.1311 66.9582 53.2784 66.8887C55.2253 66.7496 56.7723 65.811 57.8153 64.1248C58.4063 63.1688 58.6149 63.0123 60.9094 61.6912C62.2479 60.909 65.5854 58.9621 68.3145 57.3629C71.0436 55.7637 73.6684 54.2514 74.1377 54.008C76.5018 52.826 78.9702 53.1563 80.2044 54.8076C80.4651 55.1727 80.5694 55.5551 80.552 56.2504C80.552 57.6237 79.961 58.3537 77.3362 60.2311C76.1368 61.0828 73.286 63.1688 70.9915 64.8375C66.02 68.4705 62.8563 70.6086 60.0924 72.2078C56.1118 74.5198 52.6874 75.7539 50.8622 75.5627C50.3754 75.5106 48.0635 74.8674 45.7169 74.1373C34.9395 70.7824 31.9323 69.8785 31.5325 69.8785C30.8024 69.8785 29.8463 70.3653 29.2727 71.0258L28.7512 71.6516L23.9014 64.6637C20.112 59.1881 19.1212 57.641 19.3124 57.5194C20.112 57.0153 28.9946 52.6348 30.0723 52.235C33.0796 51.0877 34.8874 50.8791 37.095 51.4528ZM22.2327 65.6198C28.421 74.5371 29.0641 75.528 28.9251 75.9278C28.8208 76.2406 27.378 77.3531 24.0753 79.6477C20.251 82.3072 19.295 82.9156 18.8604 82.8635C18.3911 82.8287 17.7827 81.9944 11.5249 73.0074C7.78756 67.6014 4.7108 63.0297 4.7108 62.8211C4.69342 62.6299 4.79772 62.3518 4.90201 62.2127C5.16276 61.8998 14.0454 55.7289 14.4278 55.5899C14.5669 55.5377 14.845 55.5551 15.0362 55.6246C15.2274 55.6942 18.3215 59.9703 22.2327 65.6198Z" fill="#21272A"/>
<path id="Vector_8" d="M19.3992 73.0592C18.4258 73.6676 17.9043 74.6062 17.9043 75.7883C17.9043 78.1176 20.2336 79.5777 22.3369 78.5695C24.4576 77.5439 24.7357 74.6932 22.8584 73.2504C21.9371 72.5551 20.3727 72.4682 19.3992 73.0592ZM21.8502 74.9539C22.3543 75.4232 22.3543 75.9447 21.885 76.5531C21.1896 77.4396 19.8164 76.9182 19.8164 75.7535C19.8164 74.641 21.0158 74.1717 21.8502 74.9539Z" fill="#21272A"/>
</g>
</g>
</svg>
