<svg width="34" height="34" viewBox="0 0 34 34" fill="none" xmlns="http://www.w3.org/2000/svg">
<g id="value">
<g id="Group">
<path id="Vector" d="M21.1319 1.64353C21.0798 1.69568 21.0537 2.08027 21.0537 2.93421C21.0537 4.02932 21.0667 4.16621 21.171 4.25747C21.334 4.40088 21.4839 4.39436 21.6404 4.23792C21.7577 4.12058 21.7708 4.0228 21.7708 2.97984C21.7708 2.06724 21.7512 1.82605 21.6665 1.70872C21.5556 1.55227 21.2623 1.51316 21.1319 1.64353Z" fill="#21272A"/>
<path id="Vector_2" d="M15.0376 3.31217C14.9724 3.37735 14.9268 3.48165 14.9268 3.54683C14.9268 3.72935 16.0479 5.61973 16.1979 5.67188C16.3869 5.74359 16.5825 5.65233 16.6477 5.46329C16.6998 5.31988 16.6281 5.16344 16.1653 4.36165C15.8719 3.84669 15.5786 3.37083 15.5265 3.30565C15.3961 3.16224 15.1679 3.16224 15.0376 3.31217Z" fill="#21272A"/>
<path id="Vector_3" d="M27.2997 3.27282C27.241 3.31845 26.9542 3.77475 26.6608 4.2832C26.1002 5.26098 26.0416 5.47609 26.3023 5.64557C26.4066 5.71728 26.4653 5.71728 26.5891 5.65209C26.7717 5.56083 27.8342 3.76171 27.8342 3.54008C27.8342 3.25978 27.5213 3.10334 27.2997 3.27282Z" fill="#21272A"/>
<path id="Vector_4" d="M17.665 6.89091C17.4238 6.98869 13.819 9.61567 13.7799 9.72648C13.7604 9.79819 13.7864 9.91552 13.8386 9.99374C14.0016 10.2349 21.1785 17.7769 21.2893 17.8225C21.3415 17.8421 21.4523 17.8225 21.537 17.7769C21.6152 17.7378 23.3296 15.9582 25.3438 13.8332C28.0816 10.9455 29.0073 9.92856 29.0073 9.81774C29.0073 9.71345 28.9225 9.59611 28.7661 9.47226C28.3619 9.15285 25.3308 7.00173 25.1809 6.9235C25.0766 6.86484 24.0467 6.84528 21.4001 6.8518C19.3989 6.8518 17.7171 6.87136 17.665 6.89091ZM19.4771 7.61447C19.4706 7.64706 19.1968 8.07077 18.8774 8.55966L18.3038 9.4527H16.798C15.9702 9.4527 15.3183 9.43315 15.3444 9.40707C15.3705 9.381 15.9506 8.95729 16.6416 8.46188L17.8931 7.56884L18.6949 7.56232C19.1382 7.56232 19.4902 7.5884 19.4771 7.61447ZM22.9972 8.48144C23.3296 8.98989 23.5904 9.41359 23.5773 9.42663C23.5643 9.44618 22.5669 9.44618 21.361 9.43967L19.1708 9.42011L19.7249 8.5727C20.0312 8.10336 20.318 7.68617 20.3506 7.64054C20.4028 7.5884 20.6961 7.56232 21.4066 7.56232H22.3975L22.9972 8.48144ZM26.2043 8.50751L27.5276 9.4527H26.0022H24.4769L23.988 8.69003C23.7207 8.27284 23.4469 7.84914 23.3818 7.74484L23.2579 7.56232H24.0662H24.881L26.2043 8.50751ZM19.3142 13.0184C19.9074 14.5893 20.3897 15.8735 20.3832 15.88C20.3702 15.893 15.918 11.2062 15.3574 10.5935L14.9793 10.1697H16.6025H18.2321L19.3142 13.0184ZM23.7077 10.3783C23.6621 10.4957 23.1275 11.9037 22.5148 13.5072C21.9086 15.1108 21.3936 16.4015 21.374 16.3754C21.3284 16.3298 19.1056 10.4892 19.0469 10.2806C19.0208 10.1763 19.1643 10.1697 21.4066 10.1697H23.7924L23.7077 10.3783ZM27.7557 10.2219C27.7231 10.3132 22.4626 15.8344 22.4366 15.8148C22.417 15.7953 24.2227 10.9976 24.4769 10.3783L24.5681 10.1697H26.1717C27.0582 10.1697 27.7687 10.1958 27.7557 10.2219Z" fill="#21272A"/>
<path id="Vector_5" d="M10.5195 7.85583C10.4217 8.00576 10.4217 8.03184 10.513 8.16873C10.6368 8.36428 12.4099 9.3877 12.6119 9.3877C12.9053 9.3877 13.0682 9.0748 12.8922 8.85317C12.7488 8.68369 10.9627 7.69287 10.7867 7.69287C10.689 7.69287 10.5847 7.75154 10.5195 7.85583Z" fill="#21272A"/>
<path id="Vector_6" d="M30.917 8.20784C29.8806 8.82058 29.8545 8.84014 29.8545 9.05525C29.8545 9.27036 29.9653 9.3877 30.1674 9.3877C30.3369 9.3877 32.1164 8.39688 32.2533 8.22739C32.4358 7.99272 32.2598 7.68635 31.9535 7.69939C31.8557 7.70591 31.3929 7.93406 30.917 8.20784Z" fill="#21272A"/>
<path id="Vector_7" d="M11.8891 18.6049C11.0808 18.8526 10.0834 19.2959 8.35602 20.1824C7.48905 20.6322 6.74593 20.9777 6.71334 20.9581C6.68075 20.9386 6.56341 20.7952 6.45912 20.6387C6.3483 20.4823 6.15926 20.3063 6.02889 20.2476C5.74859 20.1107 5.2923 20.0977 5.07066 20.215C4.84903 20.3323 1.84398 22.4052 1.50502 22.6725C1.06827 23.0245 0.937901 23.4808 1.13346 23.9436C1.23775 24.1848 6.05497 31.1597 6.31571 31.4465C6.64164 31.7985 7.17616 31.9158 7.57379 31.7072C7.67809 31.6485 8.57113 31.0488 9.54891 30.3709C11.1264 29.2823 11.348 29.1063 11.4654 28.8586C11.6414 28.487 11.6348 28.2524 11.4393 27.8613C11.348 27.6853 11.2763 27.5093 11.2763 27.4767C11.2763 27.3593 11.674 26.9226 11.7783 26.9226C11.8369 26.9226 13.4144 27.3984 15.2787 27.9786C18.5119 28.989 18.701 29.0346 19.1964 29.0346C20.813 29.0216 23.0162 27.8417 27.3446 24.6737C28.3158 23.9632 29.2806 23.2657 29.4957 23.1223C30.5061 22.4378 30.9233 21.8251 30.9233 21.0559C30.9167 19.6348 29.3067 18.8591 27.7292 19.5045C27.514 19.5957 26.1582 20.3584 24.7111 21.2058C23.264 22.0532 22.058 22.7507 22.0319 22.7507C22.0059 22.7507 21.9602 22.6399 21.9342 22.5095C21.8429 22.0011 21.3475 21.3101 20.9042 21.082C20.8065 21.0298 20.0699 20.7691 19.2681 20.5018C18.4598 20.2346 17.1821 19.7587 16.4129 19.4523C14.1771 18.5463 14.0337 18.5006 13.1667 18.4745C12.5149 18.4485 12.3519 18.468 11.8891 18.6049ZM13.9098 19.2959C14.1836 19.3676 15.1092 19.7 15.9567 20.039C17.4885 20.6452 18.5641 21.0363 19.8678 21.4535C20.6239 21.7012 20.9108 21.8968 21.1128 22.314C21.5691 23.2592 20.8847 24.3804 19.8482 24.3804C19.6657 24.3804 18.4533 24.0675 16.6672 23.559C13.6295 22.6986 13.5643 22.6855 13.46 23.0115C13.3492 23.3569 13.4209 23.3895 16.5629 24.2761C19.3528 25.0648 19.5484 25.1104 19.9786 25.0844C20.7087 25.0322 21.2888 24.6802 21.6799 24.0479C21.9016 23.6894 21.9798 23.6307 22.8402 23.1353C23.3422 22.842 24.5937 22.1119 25.6171 21.5122C26.6406 20.9125 27.6249 20.3454 27.8009 20.2541C28.6874 19.8108 29.613 19.9347 30.0758 20.554C30.1736 20.6909 30.2127 20.8343 30.2062 21.095C30.2062 21.61 29.9846 21.8837 29.0003 22.5878C28.5505 22.9072 27.4815 23.6894 26.621 24.3152C24.7567 25.6775 23.5703 26.4793 22.5339 27.079C21.0411 27.946 19.757 28.4088 19.0725 28.3371C18.89 28.3176 18.023 28.0764 17.143 27.8026C13.1015 26.5445 11.9738 26.2056 11.8239 26.2056C11.5501 26.2056 11.1916 26.3881 10.9765 26.6358L10.7809 26.8704L8.96224 24.25C7.5412 22.1966 7.16964 21.6165 7.24134 21.5709C7.5412 21.3818 10.8722 19.7391 11.2763 19.5892C12.404 19.159 13.082 19.0808 13.9098 19.2959ZM8.33646 24.6085C10.6571 27.9525 10.8983 28.3241 10.8461 28.474C10.807 28.5913 10.266 29.0085 9.02743 29.869C7.59335 30.8663 7.23482 31.0945 7.07186 31.0749C6.89586 31.0619 6.66771 30.749 4.32103 27.3789C2.91954 25.3516 1.76576 23.6372 1.76576 23.559C1.75924 23.4873 1.79835 23.383 1.83746 23.3309C1.93524 23.2135 5.26622 20.8994 5.40963 20.8473C5.46178 20.8277 5.56607 20.8343 5.63778 20.8603C5.70948 20.8864 6.86979 22.49 8.33646 24.6085Z" fill="#21272A"/>
<path id="Vector_8" d="M7.27349 27.398C6.90845 27.6262 6.71289 27.9782 6.71289 28.4215C6.71289 29.2949 7.58638 29.8425 8.37512 29.4644C9.17039 29.0798 9.27468 28.0108 8.57068 27.4697C8.2252 27.209 7.63853 27.1764 7.27349 27.398ZM8.1926 28.1086C8.38164 28.2846 8.38164 28.4801 8.20564 28.7083C7.9449 29.0407 7.42993 28.8452 7.42993 28.4084C7.42993 27.9912 7.87971 27.8152 8.1926 28.1086Z" fill="#21272A"/>
</g>
</g>
</svg>
