<svg width="87" height="82" viewBox="0 0 87 82" fill="none" xmlns="http://www.w3.org/2000/svg">
<g id="deal 1" clip-path="url(#clip0_404_1436)">
<g id="Group">
<path id="Vector" d="M41.7068 0.351595C40.2506 0.547861 38.8629 1.00582 37.2526 1.79088C36.0362 2.39604 35.3852 2.85399 34.1517 4.03159C31.9074 6.15782 30.7596 8.21861 30.2285 11.0645C29.903 12.8636 29.903 13.6814 30.2285 15.4805C31.1536 20.5507 35.1796 24.6559 40.5076 25.9644C42.1351 26.3569 45.2189 26.3569 46.8464 25.9644C51.8489 24.7377 55.6864 21.0741 56.9713 16.2983C57.3825 14.7445 57.3825 11.8005 56.9713 10.2467C55.1896 3.63906 48.611 -0.613382 41.7068 0.351595ZM46.401 2.72315C49.2277 3.36102 52.3286 5.6835 53.6649 8.15319C55.4294 11.3752 55.4123 15.1861 53.6649 18.3918C52.7911 19.9946 50.7182 21.9736 49.0393 22.8078C45.6643 24.4924 41.6897 24.4924 38.3147 22.8078C36.4816 21.8919 34.5286 19.9783 33.6035 18.1791C32.5584 16.1511 32.3186 15.0552 32.4042 12.7818C32.4728 11.2607 32.5756 10.6719 32.9696 9.67426C34.2887 6.25595 37.3725 3.54093 40.8845 2.73951C42.2208 2.42875 45.0475 2.42875 46.401 2.72315Z" fill="#21272A"/>
<path id="Vector_2" d="M44.8106 11.9645L41.7097 14.8921L40.579 13.8454C39.3284 12.6841 38.8144 12.5206 38.1977 13.1094C37.5124 13.7636 37.718 14.1889 39.534 15.9225C40.8874 17.2146 41.3157 17.5254 41.7097 17.5254C42.138 17.5254 42.7719 16.9857 45.8556 14.0417C49.7446 10.3289 49.933 10.0836 49.1621 9.34761C48.4254 8.64433 48.0999 8.82424 44.8106 11.9645Z" fill="#21272A"/>
<path id="Vector_3" d="M16.8675 23.3152C16.5933 23.4461 16.1479 23.7405 15.9081 24.0022C15.3941 24.5419 1.48306 42.533 0.98624 43.2854C0.592208 43.9069 0.575076 45.1662 0.951977 45.9186C1.32888 46.6873 7.83897 51.643 8.79836 51.8884C9.74061 52.1337 10.7171 51.9211 11.4195 51.3323C11.9849 50.858 12.0363 50.8416 12.4646 51.087C12.7215 51.2342 13.0984 51.594 13.3212 51.872C13.6638 52.3627 13.6981 52.608 13.6981 54.3908V56.3698L12.4817 57.8418C10.7514 59.9353 10.4088 60.655 10.306 62.2578C10.2546 63.3373 10.306 63.7462 10.6315 64.5476C11.1112 65.7742 12.3789 67.0827 13.6809 67.6878C14.5033 68.0804 14.8459 68.1458 16.1137 68.1458H17.6041L17.7069 68.9472C17.9125 70.6645 19.3173 72.4473 20.9791 73.1506C22.0241 73.5922 23.6859 73.7067 24.6967 73.4123L25.5019 73.1669L25.6218 73.6903C25.9302 75.1133 27.198 76.5198 28.7912 77.2068C29.6992 77.6157 31.7379 77.6647 32.5945 77.3213L33.1598 77.1086L33.4682 77.9264C33.8622 78.9895 35.0786 80.1998 36.295 80.7723C37.083 81.1485 37.4771 81.2302 38.5392 81.2139C40.1839 81.2139 41.4688 80.6578 42.5138 79.5129L43.2505 78.7115L44.1927 79.1531C45.4434 79.7419 47.4478 79.7746 48.6641 79.2021C50.5315 78.3517 51.6793 76.8142 51.8507 74.9661L51.9535 74.0011L52.9985 73.8866C55.6882 73.6249 57.5213 71.8258 57.6926 69.2743L57.7612 68.1131L58.7034 68.0149C61.4274 67.7369 63.6202 65.4308 63.6374 62.8139V61.7181L64.631 61.6363C65.9673 61.5218 67.3036 60.8676 68.2458 59.8699C69.1538 58.9049 69.5479 57.8909 69.5479 56.517V55.4866L70.1132 55.3885C70.4044 55.3394 71.3981 55.2086 72.2889 55.0941C73.8651 54.8978 73.9336 54.9142 74.6874 55.274C75.2356 55.552 75.6468 55.6338 76.1436 55.5847C76.9831 55.503 84.9836 52.1337 85.6689 51.5776C86.3713 51.0215 86.6797 50.3837 86.6797 49.5005C86.6797 48.3883 76.6576 24.7545 75.8524 23.9531C75.2014 23.3152 74.3619 23.0208 73.5053 23.1353C72.8029 23.2171 64.494 26.7335 63.9971 27.1424C63.5346 27.5513 63.0378 28.6308 63.0378 29.3177C63.0378 29.8574 62.9692 29.9229 61.8899 30.5117C59.8341 31.5911 60.2795 31.6075 51.6451 30.3808C47.4135 29.792 43.5417 29.3014 43.0792 29.3014C41.109 29.3014 39.0361 30.1355 37.5113 31.5257L36.5348 32.4089H32.2861H28.0374L27.4721 32C26.941 31.6075 26.9067 31.5421 27.0095 30.7897C27.1808 29.3014 26.8211 28.8598 23.0178 26.0139C21.1847 24.6237 19.4715 23.4134 19.2145 23.2989C18.5978 23.0372 17.5013 23.0535 16.8675 23.3152ZM21.3389 27.5186C23.0178 28.778 24.4911 29.9392 24.611 30.0864C24.7824 30.3154 24.7824 30.4462 24.611 30.7407C24.4911 30.9369 21.1675 35.3038 17.2101 40.4231C11.3339 48.0285 9.94619 49.7294 9.62069 49.7458C9.34658 49.7458 8.13022 48.928 6.04013 47.3579C3.45322 45.3952 2.88787 44.8882 2.93927 44.6102C3.0078 44.2667 17.33 25.5723 17.7069 25.3433C17.8097 25.2779 17.981 25.2125 18.0838 25.2125C18.1866 25.2125 19.6428 26.2429 21.3389 27.5186ZM74.3105 25.5723C74.7217 26.063 84.4697 49.4187 84.384 49.6967C84.2812 50.0238 76.589 53.344 75.938 53.344C75.7324 53.344 75.4926 53.2132 75.3898 53.0496C75.3041 52.9024 73.2483 48.0939 70.8327 42.3858C68.4172 36.6777 66.1729 31.3949 65.8474 30.6425C65.4019 29.6448 65.2992 29.2196 65.4191 29.007C65.6075 28.6962 73.1969 25.3924 73.7623 25.3924C73.9679 25.376 74.2077 25.4742 74.3105 25.5723ZM51.0626 32.507C60.1253 33.7991 60.2453 33.7991 62.421 32.687C63.8943 31.9346 63.9115 31.9346 64.0657 32.2944C64.5111 33.2594 72.7686 52.7716 72.7515 52.8043C72.7344 52.8043 71.8264 52.9515 70.7471 53.0987C67.5948 53.5403 65.4362 53.2459 63.5003 52.0846C63.1405 51.872 59.5771 49.2061 55.6025 46.1639C50.6 42.3367 48.0988 40.5376 47.5163 40.325C46.9338 40.1124 46.2486 40.0142 45.2206 40.0142C43.7987 40.0142 43.713 40.0306 41.7086 40.9465C39.2588 42.0587 38.2994 42.2877 36.3292 42.1895C33.7423 42.0587 32.0291 41.2082 32.0291 40.0633C32.0291 39.5072 32.2861 39.2292 36.7061 35.2057C38.1795 33.8482 39.7042 32.5561 40.0811 32.3271C40.8006 31.8855 42.2397 31.4603 43.0106 31.4439C43.2676 31.4276 46.8996 31.9182 51.0626 32.507ZM26.3242 33.9136L27.0952 34.4534L30.5044 34.5024C32.3718 34.5351 33.9136 34.5842 33.9136 34.6333C33.9136 34.666 33.1427 35.4183 32.1833 36.2852C29.8876 38.395 29.4422 39.2619 29.8191 40.9629C30.4016 43.5798 35.1643 45.1335 39.5671 44.1522C39.9954 44.0541 41.1947 43.5961 42.2397 43.1218C46.0087 41.4208 45.4091 41.1755 54.3348 48.0121C58.2751 51.0052 61.8728 53.7038 62.3525 53.9982C63.3119 54.587 65.145 55.2413 66.2928 55.4048C67.1837 55.5357 67.3207 55.6665 67.3207 56.4843C67.3207 57.5965 66.6526 58.6269 65.5733 59.1666C65.0593 59.4283 63.6202 59.4774 63.0035 59.2484C62.7808 59.1666 60.1082 57.3348 57.0416 55.1595C50.9941 50.8743 50.857 50.8089 50.1375 51.7412C49.5207 52.5262 49.812 52.8206 54.8659 56.3698C57.4185 58.1689 59.817 59.9026 60.1939 60.2134C61.0162 60.9166 61.3246 61.5872 61.3246 62.6667C61.3246 64.7929 59.2174 66.3303 57.093 65.7906C56.6647 65.6761 54.5918 64.3677 51.4909 62.2578C46.4199 58.8068 46.0258 58.5942 45.3577 59.183C44.9979 59.4937 44.9465 60.197 45.272 60.5732C45.3748 60.7204 47.4135 62.1433 49.7606 63.7462C52.1248 65.349 54.2834 66.8864 54.5918 67.1645C56.3563 68.8327 55.1057 71.6622 52.6216 71.6622C52.2276 71.6622 51.7479 71.5968 51.5252 71.515C51.3024 71.4333 49.1267 69.8795 46.6768 68.064C44.227 66.2485 42.0513 64.6784 41.8285 64.5803C41.2803 64.3349 40.5265 64.891 40.458 65.5943C40.3895 66.2158 40.1154 65.9705 45.0322 69.6505C47.0538 71.1552 48.8526 72.5945 49.0582 72.8398C49.5379 73.4777 49.6407 75.0151 49.2466 75.8165C48.6299 77.0269 47.0709 77.7138 45.6661 77.3703C44.5525 77.1086 44.484 76.9451 44.9123 75.8983C45.7517 73.8212 45.1007 71.3678 43.319 70.0267C42.274 69.2416 41.4859 68.9799 40.1496 68.9799L39.0874 68.9636L39.0018 68.1131C38.7619 65.8724 36.7404 64.0406 34.3248 63.8443L33.2798 63.7625L33.1941 62.7648C33.0228 60.7367 31.8578 59.0848 30.0076 58.218C29.0482 57.76 28.6884 57.6782 27.6434 57.6782H26.4099L26.3071 56.8605C26.1358 55.4702 25.7075 54.538 24.7824 53.573C23.6003 52.3463 22.5381 51.8393 20.8592 51.7412C19.2316 51.643 18.0324 51.9865 16.7989 52.8697L15.9252 53.5076V52.7225C15.9252 51.594 15.2399 50.3673 14.1949 49.615L13.3726 49.0262L14.0064 48.2084C14.3491 47.7504 15.9423 45.6733 17.5527 43.6125C19.1631 41.5353 21.5958 38.395 22.9493 36.6286C24.3198 34.8459 25.4676 33.3902 25.4848 33.3902C25.519 33.3902 25.8959 33.6356 26.3242 33.9136ZM21.5958 54.031C22.5038 54.309 23.0863 54.767 23.5831 55.5847C24.1314 56.5006 24.1999 57.8582 23.7202 58.7414C23.2576 59.6246 18.9061 64.891 18.2723 65.349C15.9423 67.05 12.6016 65.4308 12.5845 62.5849C12.5845 61.3419 12.7901 61.0148 15.7881 57.3675C17.5527 55.2086 18.238 54.5053 18.8205 54.2109C19.6599 53.802 20.6879 53.7202 21.5958 54.031ZM29.1167 60.2134C30.6243 60.9494 31.2925 62.4214 30.8299 63.9915C30.6415 64.6457 25.9816 70.2884 25.1935 70.8281C23.566 71.9403 21.1675 71.3188 20.2082 69.536C19.8655 68.9145 19.9341 67.5733 20.3452 66.8373C20.8249 65.9541 25.1421 60.7204 25.7075 60.3278C26.6155 59.69 27.9346 59.6573 29.1167 60.2134ZM35.0443 66.2485C35.8667 66.6084 36.4149 67.2135 36.689 68.1131C36.9974 69.0781 36.6376 69.8141 34.5818 72.4637C32.6459 74.9497 32.0463 75.424 30.7271 75.424C29.7335 75.424 28.5171 74.6389 28.0888 73.7394C27.6948 72.9053 27.6605 72.3328 28.0031 71.5805C28.243 71.008 31.2582 67.3607 32.0805 66.6247C32.8686 65.9214 33.965 65.7742 35.0443 66.2485ZM41.4688 71.4333C42.0513 71.7113 42.7879 72.5454 42.925 73.0688C43.182 74.0501 42.8907 75.0478 41.9656 76.4381C40.8006 78.1717 40.458 78.5152 39.7899 78.7933C38.0081 79.5293 35.8838 78.5316 35.4898 76.7652C35.3356 76.0782 35.4384 75.195 35.7296 74.7534C36.2093 74.0011 38.1281 71.7604 38.4707 71.5477C39.3273 71.0244 40.5094 70.9753 41.4688 71.4333Z" fill="#21272A"/>
</g>
</g>
<defs>
<clipPath id="clip0_404_1436">
<rect width="87" height="82" fill="white"/>
</clipPath>
</defs>
</svg>
