<svg width="91" height="91" viewBox="0 0 91 91" fill="none" xmlns="http://www.w3.org/2000/svg">
<g id="idea 1">
<g id="Group">
<path id="Vector" d="M44.5332 6.56445C44.0938 6.98633 44.0938 7.02148 44.0938 10.3438C44.0938 13.666 44.0938 13.7012 44.5332 14.123C44.7969 14.4043 45.166 14.5625 45.5 14.5625C45.834 14.5625 46.2031 14.4043 46.4668 14.123C46.9062 13.7012 46.9062 13.666 46.9062 10.3438C46.9062 7.02148 46.9062 6.98633 46.4668 6.56445C46.2031 6.2832 45.834 6.125 45.5 6.125C45.166 6.125 44.7969 6.2832 44.5332 6.56445Z" fill="#21272A"/>
<path id="Vector_2" d="M20.6974 16.4785C19.7833 17.3926 19.9767 17.7793 22.7013 20.4863C24.7404 22.5254 25.1271 22.8242 25.6193 22.8242C26.3751 22.8242 27.0431 22.1562 27.0431 21.4004C27.0431 20.9082 26.7443 20.5215 24.7228 18.4824C21.9982 15.7578 21.6115 15.5645 20.6974 16.4785Z" fill="#21272A"/>
<path id="Vector_3" d="M68.791 16.1445C68.5977 16.2148 67.4375 17.3047 66.207 18.5527C64.2734 20.5215 63.957 20.9082 63.957 21.4004C63.957 22.1562 64.625 22.8242 65.3809 22.8242C65.873 22.8242 66.2598 22.5254 68.2988 20.4863C71.0059 17.7969 71.2168 17.3926 70.3203 16.4961C69.7754 15.9512 69.4238 15.8809 68.791 16.1445Z" fill="#21272A"/>
<path id="Vector_4" d="M42.9514 17.4805C40.9475 17.7969 39.2776 18.166 37.8889 18.6406C25.4612 22.7891 18.6936 36.3066 22.8245 48.6816C24.5295 53.832 27.4123 57.6992 31.8245 60.8281C32.5627 61.3379 33.3889 61.9004 33.6877 62.0586L34.2327 62.3574L34.2854 69.916C34.3381 77.2285 34.3557 77.4746 34.7073 77.9492C35.4807 79.0039 35.885 79.1621 37.9416 79.2148L39.8401 79.2852L39.9104 81.1836C39.9631 83.2402 40.1213 83.6445 41.176 84.418C41.633 84.7695 41.8967 84.7871 45.5002 84.7871C49.1038 84.7871 49.3674 84.7695 49.8245 84.418C50.8791 83.6445 51.0373 83.2402 51.0901 81.1836L51.1604 79.2852L53.0588 79.2148C55.1155 79.1621 55.5198 79.0039 56.2932 77.9492C56.6448 77.4922 56.6623 77.1934 56.7502 69.8984L56.8381 62.3223L57.928 61.6543C62.6213 58.8066 66.3655 54.1309 68.0705 49.0156C69.0901 45.957 69.3186 44.5508 69.301 41.2813C69.301 37.9941 69.0373 36.3418 68.053 33.4766C66.0666 27.7461 61.9709 22.9649 56.6623 20.1699C53.1291 18.3066 50.2463 17.5508 46.2034 17.4629C44.7092 17.4277 43.2502 17.4453 42.9514 17.4805ZM48.7873 20.4512C57.4885 21.8574 64.1682 28.2559 66.1897 37.0977C66.4006 38.0293 66.4709 39.1895 66.4709 41.3691C66.4709 44.1465 66.4358 44.5156 65.926 46.4316C64.4319 52.1621 60.7053 56.9434 55.5901 59.7559C54.8694 60.1602 54.2014 60.6172 54.1135 60.793C54.008 60.9688 53.9377 62.041 53.9377 63.1484V65.1875H50.4221H46.9065V61.9707V58.7715L48.9104 56.7676C50.0178 55.6602 50.967 54.5527 51.0373 54.3242C51.2659 53.4102 50.51 52.5313 49.508 52.5313C49.2795 52.5313 48.4534 53.1992 47.3284 54.3242L45.5002 56.1172L43.6721 54.3242C42.5471 53.1992 41.7209 52.5313 41.4924 52.5313C40.5784 52.5313 39.8752 53.2344 39.8752 54.1484C39.8752 54.3945 40.6311 55.291 41.9846 56.6621L44.094 58.7891V61.9883V65.1875H40.5784H37.0627V63.1484C37.0627 62.041 36.9924 60.9688 36.887 60.793C36.7991 60.6172 36.1311 60.1602 35.428 59.7734C25.4436 54.2891 21.5764 42.0195 26.6389 31.877C29.8205 25.4961 35.9026 21.2422 43.1272 20.3106C44.428 20.1348 47.3108 20.2051 48.7873 20.4512ZM53.9377 69.4063V70.8125H45.5002H37.0627V69.4063V68H45.5002H53.9377V69.4063ZM53.9377 75.0313V76.4375H45.5002H37.0627V75.0313V73.625H45.5002H53.9377V75.0313ZM48.3127 80.6563V82.0625H45.5002H42.6877V80.6563V79.25H45.5002H48.3127V80.6563Z" fill="#21272A"/>
<path id="Vector_5" d="M10.7832 40.3145C10.502 40.5781 10.3438 40.9473 10.3438 41.2812C10.3438 41.6152 10.502 41.9844 10.7832 42.248C11.2051 42.6875 11.2402 42.6875 14.5625 42.6875C17.8848 42.6875 17.9199 42.6875 18.3418 42.248C18.623 41.9844 18.7812 41.6152 18.7812 41.2812C18.7812 40.9473 18.623 40.5781 18.3418 40.3145C17.9199 39.875 17.8848 39.875 14.5625 39.875C11.2402 39.875 11.2051 39.875 10.7832 40.3145Z" fill="#21272A"/>
<path id="Vector_6" d="M72.6582 40.3145C72.377 40.5781 72.2188 40.9473 72.2188 41.2812C72.2188 41.6152 72.377 41.9844 72.6582 42.248C73.0801 42.6875 73.1152 42.6875 76.4375 42.6875C79.7598 42.6875 79.7949 42.6875 80.2168 42.248C80.498 41.9844 80.6562 41.6152 80.6562 41.2812C80.6562 40.9473 80.498 40.5781 80.2168 40.3145C79.7949 39.875 79.7598 39.875 76.4375 39.875C73.1152 39.875 73.0801 39.875 72.6582 40.3145Z" fill="#21272A"/>
<path id="Vector_7" d="M25.0216 59.9144C24.8283 59.9847 23.7033 61.0394 22.5256 62.2347C19.9943 64.766 19.8009 65.1878 20.6974 66.0843C21.5939 66.9632 22.0158 66.7699 24.4591 64.3441C27.2365 61.6019 27.4474 61.18 26.5334 60.2484C26.006 59.721 25.6369 59.6507 25.0216 59.9144Z" fill="#21272A"/>
<path id="Vector_8" d="M64.4667 60.2479C63.5702 61.1444 63.7636 61.5663 66.2772 64.0799C67.455 65.2577 68.6327 66.3124 68.8964 66.4178C69.9159 66.8397 71.0585 65.6971 70.6366 64.6776C70.5311 64.4139 69.4765 63.2362 68.2987 62.0584C65.7851 59.5448 65.3632 59.3514 64.4667 60.2479Z" fill="#21272A"/>
</g>
</g>
</svg>
